<svg width="24" height="24" viewBox="0 0 24 24" fill="none" xmlns="http://www.w3.org/2000/svg">
<path d="M9.1603 10.87C9.0603 10.86 8.9403 10.86 8.8303 10.87C6.4503 10.79 4.5603 8.84 4.5603 6.44C4.5603 3.99 6.5403 2 9.0003 2C11.4503 2 13.4403 3.99 13.4403 6.44C13.4303 8.84 11.5403 10.79 9.1603 10.87Z" stroke="#FC4C56" stroke-width="1.5" stroke-linecap="round" stroke-linejoin="round"/>
<path opacity="0.4" d="M16.41 4C18.35 4 19.91 5.57 19.91 7.5C19.91 9.39 18.41 10.93 16.54 11C16.46 10.99 16.37 10.99 16.28 11" stroke="#FC4C56" stroke-width="1.5" stroke-linecap="round" stroke-linejoin="round"/>
<path d="M4.15997 14.56C1.73997 16.18 1.73997 18.82 4.15997 20.43C6.90997 22.27 11.42 22.27 14.17 20.43C16.59 18.81 16.59 16.17 14.17 14.56C11.43 12.73 6.91997 12.73 4.15997 14.56Z" stroke="#FC4C56" stroke-width="1.5" stroke-linecap="round" stroke-linejoin="round"/>
<path opacity="0.4" d="M18.3401 20C19.0601 19.85 19.7401 19.56 20.3001 19.13C21.8601 17.96 21.8601 16.03 20.3001 14.86C19.7501 14.44 19.0801 14.16 18.3701 14" stroke="#FC4C56" stroke-width="1.5" stroke-linecap="round" stroke-linejoin="round"/>
</svg>
