<svg width="15" height="15" viewBox="0 0 15 15" fill="none" xmlns="http://www.w3.org/2000/svg">
<path fill-rule="evenodd" clip-rule="evenodd" d="M13.8833 4.85389C14.1134 5.40809 13.9699 6.04712 13.525 6.44979C13.2283 6.71781 13.0585 7.09858 13.0573 7.49841C13.0561 7.89825 13.2237 8.28002 13.5188 8.54979C13.9626 8.95175 14.1063 9.58905 13.8778 10.1425C13.6494 10.696 13.0981 11.0465 12.5 11.0185C12.102 11.0006 11.7147 11.1509 11.4329 11.4326C11.1511 11.7144 11.0008 12.1017 11.0188 12.4998C11.0318 13.0834 10.6861 13.6154 10.1475 13.8405C9.6089 14.0656 8.98741 13.9379 8.58129 13.5185C8.31239 13.2226 7.93112 13.0539 7.53129 13.0539C7.13145 13.0539 6.75018 13.2226 6.48129 13.5185C6.08495 13.9891 5.4305 14.1506 4.86077 13.9184C4.29103 13.6862 3.93585 13.1133 3.98129 12.4998C3.99925 12.1017 3.84896 11.7144 3.56719 11.4326C3.28541 11.1509 2.89812 11.0006 2.50004 11.0185C1.91644 11.0316 1.38443 10.6858 1.15932 10.1473C0.93422 9.60866 1.06198 8.98716 1.48129 8.58105C1.7772 8.31215 1.94591 7.93088 1.94591 7.53104C1.94591 7.13121 1.7772 6.74994 1.48129 6.48104C1.01073 6.08471 0.849247 5.43026 1.08141 4.86053C1.31358 4.29079 1.88649 3.93561 2.50004 3.98104C2.89812 3.999 3.28541 3.84872 3.56719 3.56694C3.84896 3.28517 3.99925 2.89788 3.98129 2.49979C3.95329 1.90168 4.3038 1.35039 4.85729 1.12198C5.41078 0.893581 6.04808 1.03725 6.45004 1.48104C6.71893 1.77696 7.1002 1.94567 7.50004 1.94567C7.89987 1.94567 8.28114 1.77696 8.55004 1.48104C8.95199 1.03725 9.58929 0.893581 10.1428 1.12198C10.6963 1.35039 11.0468 1.90168 11.0188 2.49979C11.0008 2.89788 11.1511 3.28517 11.4329 3.56694C11.7147 3.84872 12.102 3.999 12.5 3.98104C13.0993 3.95019 13.6532 4.2997 13.8833 4.85389ZM6.35004 6.09354C6.35004 5.83466 6.14017 5.62479 5.88129 5.62479C5.62381 5.62816 5.4159 5.83607 5.41254 6.09354C5.41254 6.35243 5.6224 6.56229 5.88129 6.56229C6.14017 6.56229 6.35004 6.35243 6.35004 6.09354ZM9.17504 9.37479C8.91615 9.37479 8.70629 9.16493 8.70629 8.90604C8.70629 8.64716 8.91615 8.43729 9.17504 8.43729C9.43392 8.43729 9.64379 8.64716 9.64379 8.90604C9.64042 9.16352 9.43251 9.37143 9.17504 9.37479ZM6.03129 9.63104L9.63129 6.02479V6.03104C9.80339 5.84635 9.79831 5.55854 9.6198 5.38003C9.44129 5.20152 9.15348 5.19645 8.96879 5.36854L5.36879 8.96854C5.27944 9.0556 5.22906 9.17505 5.22906 9.29979C5.22906 9.42454 5.27944 9.54399 5.36879 9.63104C5.45494 9.72145 5.57519 9.77136 5.70004 9.76854C5.82445 9.76913 5.94386 9.71957 6.03129 9.63104Z" fill="#8C8C8C"/>
</svg>
