<svg width="28" height="28" viewBox="0 0 28 28" fill="none" xmlns="http://www.w3.org/2000/svg">
<path opacity="0.4" d="M20.4517 9.06468C20.37 9.05301 20.2884 9.05301 20.2067 9.06468C18.3984 9.00635 16.9634 7.52467 16.9634 5.70467C16.9634 3.84967 18.4684 2.33301 20.335 2.33301C22.19 2.33301 23.7067 3.83801 23.7067 5.70467C23.695 7.52467 22.26 9.00635 20.4517 9.06468Z" fill="#0080FF"/>
<path opacity="0.4" d="M24.255 17.1505C22.9484 18.0255 21.1167 18.3521 19.425 18.1305C19.8684 17.1738 20.1017 16.1121 20.1134 14.9921C20.1134 13.8255 19.8567 12.7171 19.3667 11.7488C21.0934 11.5155 22.925 11.8421 24.2434 12.7171C26.0867 13.9305 26.0867 15.9255 24.255 17.1505Z" fill="#0080FF"/>
<path opacity="0.4" d="M7.5133 9.06468C7.59496 9.05301 7.67663 9.05301 7.7583 9.06468C9.56663 9.00635 11.0016 7.52467 11.0016 5.70467C11.0016 3.84967 9.49663 2.33301 7.62997 2.33301C5.77497 2.33301 4.2583 3.83801 4.2583 5.70467C4.26997 7.52467 5.70496 9.00635 7.5133 9.06468Z" fill="#0080FF"/>
<path opacity="0.4" d="M7.64156 14.9914C7.64156 16.1231 7.88656 17.1964 8.32989 18.1647C6.68489 18.3397 4.96989 17.9897 3.70989 17.1614C1.86656 15.9364 1.86656 13.9414 3.70989 12.7164C4.95823 11.8764 6.71989 11.538 8.37656 11.7247C7.89823 12.7047 7.64156 13.8131 7.64156 14.9914Z" fill="#0080FF"/>
<path d="M14.1401 18.515C14.0468 18.5033 13.9418 18.5033 13.8368 18.515C11.6901 18.445 9.9751 16.6833 9.9751 14.5133C9.9751 12.2967 11.7601 10.5 13.9884 10.5C16.2051 10.5 18.0018 12.2967 18.0018 14.5133C18.0018 16.6833 16.2984 18.445 14.1401 18.515Z" fill="#0080FF"/>
<path d="M10.3483 20.9301C8.58668 22.1084 8.58668 24.0451 10.3483 25.2117C12.355 26.5534 15.645 26.5534 17.6517 25.2117C19.4134 24.0334 19.4134 22.0967 17.6517 20.9301C15.6567 19.5884 12.3667 19.5884 10.3483 20.9301Z" fill="#0080FF"/>
</svg>
