<svg width="28" height="28" viewBox="0 0 28 28" fill="none" xmlns="http://www.w3.org/2000/svg">
<path d="M20.7083 8.22464C20.4283 8.17797 20.1367 8.16632 19.8333 8.16632H8.16668C7.84001 8.16632 7.52501 8.18965 7.22168 8.23632C7.38501 7.90965 7.61835 7.60635 7.89835 7.32635L11.69 3.52301C13.2883 1.93634 15.8783 1.93634 17.4767 3.52301L19.5183 5.58796C20.265 6.32296 20.6617 7.2563 20.7083 8.22464Z" fill="#00BEA4"/>
<path d="M5.83341 17.5C3.25508 17.5 1.16675 19.5883 1.16675 22.1667C1.16675 23.0417 1.41175 23.87 1.84341 24.57C2.64841 25.9233 4.13008 26.8333 5.83341 26.8333C7.53675 26.8333 9.01841 25.9233 9.82341 24.57C10.2551 23.87 10.5001 23.0417 10.5001 22.1667C10.5001 19.5883 8.41175 17.5 5.83341 17.5ZM7.57175 23.0183H6.70841V23.9283C6.70841 24.4067 6.31175 24.8033 5.83341 24.8033C5.35508 24.8033 4.95841 24.4067 4.95841 23.9283V23.0183H4.09508C3.61675 23.0183 3.22008 22.6216 3.22008 22.1433C3.22008 21.665 3.61675 21.2683 4.09508 21.2683H4.95841V20.44C4.95841 19.9617 5.35508 19.565 5.83341 19.565C6.31175 19.565 6.70841 19.9617 6.70841 20.44V21.2683H7.57175C8.05008 21.2683 8.44675 21.665 8.44675 22.1433C8.44675 22.6216 8.06175 23.0183 7.57175 23.0183Z" fill="#00BEA4"/>
<path opacity="0.4" d="M25.6666 14.0003V19.8337C25.6666 23.3337 23.3333 25.667 19.8333 25.667H8.90159C9.26325 25.3637 9.57825 24.9903 9.82325 24.5703C10.2549 23.8703 10.4999 23.042 10.4999 22.167C10.4999 19.5887 8.41159 17.5003 5.83325 17.5003C4.43325 17.5003 3.18492 18.1186 2.33325 19.087V14.0003C2.33325 10.827 4.24659 8.61032 7.22159 8.23699C7.52492 8.19032 7.83992 8.16699 8.16658 8.16699H19.8333C20.1366 8.16699 20.4283 8.17864 20.7083 8.22531C23.7183 8.57531 25.6666 10.8037 25.6666 14.0003Z" fill="#00BEA4"/>
<path d="M25.6666 14.583H22.1666C20.8833 14.583 19.8333 15.633 19.8333 16.9163C19.8333 18.1997 20.8833 19.2497 22.1666 19.2497H25.6666" fill="#00BEA4"/>
</svg>
