<svg width="28" height="28" viewBox="0 0 28 28" fill="none" xmlns="http://www.w3.org/2000/svg">
<g clip-path="url(#clip0_0_4590)">
<path d="M20.9933 2.66679C19.5693 1.39459 17.8253 0.534802 15.949 0.179958C14.0728 -0.174886 12.1352 -0.0113534 10.345 0.652957C8.55474 1.31727 6.97953 2.4572 5.78889 3.95009C4.59825 5.44297 3.83727 7.23228 3.58782 9.12545C3.3638 10.7854 3.54297 12.475 4.11016 14.0511C4.67736 15.6271 5.61589 17.0434 6.84632 18.18C7.60722 18.8472 8.22122 19.6653 8.64939 20.5823C9.07756 21.4992 9.31057 22.4952 9.33366 23.507V23.6948C9.33489 24.8362 9.78885 25.9304 10.5959 26.7375C11.403 27.5446 12.4973 27.9986 13.6387 27.9998H14.362C15.5034 27.9986 16.5976 27.5446 17.4047 26.7375C18.2118 25.9304 18.6658 24.8362 18.667 23.6948V23.0543C18.6845 22.16 18.8949 21.28 19.2839 20.4746C19.6729 19.6692 20.2314 18.9573 20.921 18.3876C22.0393 17.4081 22.9368 16.2022 23.5539 14.8497C24.171 13.4972 24.4937 12.029 24.5005 10.5423C24.5073 9.05571 24.1982 7.5846 23.5936 6.22647C22.9889 4.86834 22.1026 3.65419 20.9933 2.66445V2.66679ZM14.362 25.6665H13.6387C13.1159 25.6658 12.6148 25.4579 12.2452 25.0883C11.8755 24.7187 11.6676 24.2175 11.667 23.6948C11.667 23.6948 11.6588 23.3915 11.6577 23.3331H16.3337V23.6948C16.333 24.2175 16.1251 24.7187 15.7555 25.0883C15.3859 25.4579 14.8847 25.6658 14.362 25.6665ZM19.3787 16.6353C18.0503 17.7874 17.091 19.3055 16.6207 20.9998H15.167V12.6185C15.847 12.378 16.4362 11.9334 16.8539 11.3453C17.2716 10.7572 17.4973 10.0544 17.5003 9.33312C17.5003 9.0237 17.3774 8.72696 17.1586 8.50816C16.9398 8.28937 16.6431 8.16646 16.3337 8.16646C16.0242 8.16646 15.7275 8.28937 15.5087 8.50816C15.2899 8.72696 15.167 9.0237 15.167 9.33312C15.167 9.64254 15.0441 9.93929 14.8253 10.1581C14.6065 10.3769 14.3097 10.4998 14.0003 10.4998C13.6909 10.4998 13.3942 10.3769 13.1754 10.1581C12.9566 9.93929 12.8337 9.64254 12.8337 9.33312C12.8337 9.0237 12.7107 8.72696 12.4919 8.50816C12.2732 8.28937 11.9764 8.16646 11.667 8.16646C11.3576 8.16646 11.0608 8.28937 10.842 8.50816C10.6232 8.72696 10.5003 9.0237 10.5003 9.33312C10.5033 10.0544 10.7291 10.7572 11.1468 11.3453C11.5644 11.9334 12.1536 12.378 12.8337 12.6185V20.9998H11.2913C10.7651 19.2605 9.77829 17.696 8.43532 16.472C7.29544 15.4098 6.48317 14.0438 6.09437 12.535C5.70557 11.0263 5.75648 9.43779 6.24107 7.95703C6.72566 6.47627 7.62372 5.16503 8.82927 4.17805C10.0348 3.19106 11.4975 2.56953 13.0448 2.38679C13.3656 2.35098 13.6881 2.33307 14.0108 2.33312C16.0147 2.32716 17.9491 3.06652 19.4382 4.40745C20.3011 5.17698 20.9907 6.12116 21.4611 7.17738C21.9315 8.23361 22.172 9.37776 22.1667 10.534C22.1614 11.6902 21.9104 12.8321 21.4304 13.884C20.9503 14.9359 20.2521 15.8737 19.3822 16.6353H19.3787Z" fill="#002CCA"/>
</g>
<defs>
<clipPath id="clip0_0_4590">
<rect width="28" height="28" fill="white"/>
</clipPath>
</defs>
</svg>
