<svg width="28" height="28" viewBox="0 0 28 28" fill="none" xmlns="http://www.w3.org/2000/svg">
<g clip-path="url(#clip0_0_4593)">
<path d="M2.33333 24.4727V-0.0273438H0V24.4727C0 25.4009 0.368749 26.2912 1.02513 26.9475C1.6815 27.6039 2.57174 27.9727 3.5 27.9727H28V25.6393H3.5C3.19058 25.6393 2.89383 25.5164 2.67504 25.2976C2.45625 25.0788 2.33333 24.7821 2.33333 24.4727Z" fill="url(#paint0_linear_0_4593)"/>
<path d="M26.25 4.63867H19.8334L23.0919 7.89717L18.0834 12.9057L15.75 10.5723L7.32788 18.9945L8.98338 20.65L15.7559 13.8833L18.0892 16.2167L24.7474 9.55851L28 12.8053V6.38867C28 5.92454 27.8157 5.47942 27.4875 5.15124C27.1593 4.82305 26.7142 4.63867 26.25 4.63867Z" fill="url(#paint1_linear_0_4593)"/>
</g>
<defs>
<linearGradient id="paint0_linear_0_4593" x1="14" y1="-0.0273438" x2="14" y2="27.9727" gradientUnits="userSpaceOnUse">
<stop stop-color="#FF8800"/>
<stop offset="1" stop-color="#FFD034"/>
</linearGradient>
<linearGradient id="paint1_linear_0_4593" x1="17.664" y1="4.63867" x2="17.664" y2="20.65" gradientUnits="userSpaceOnUse">
<stop stop-color="#FF8800"/>
<stop offset="1" stop-color="#FFD034"/>
</linearGradient>
<clipPath id="clip0_0_4593">
<rect width="28" height="28" fill="white"/>
</clipPath>
</defs>
</svg>
