<svg width="28" height="28" viewBox="0 0 28 28" fill="none" xmlns="http://www.w3.org/2000/svg">
<g clip-path="url(#clip0_0_4587)">
<path d="M26.766 7.9768L24.2204 5.42997L25.3252 4.32514C25.4366 4.21751 25.5255 4.08878 25.5866 3.94644C25.6478 3.8041 25.68 3.65101 25.6813 3.4961C25.6827 3.34119 25.6532 3.18757 25.5945 3.04419C25.5358 2.90081 25.4492 2.77055 25.3397 2.66101C25.2301 2.55147 25.0999 2.46484 24.9565 2.40618C24.8131 2.34752 24.6595 2.318 24.5046 2.31934C24.3497 2.32069 24.1966 2.35287 24.0542 2.41402C23.9119 2.47516 23.7831 2.56404 23.6755 2.67547L22.5707 3.7803L20.0239 1.23464C19.2211 0.469678 18.1548 0.0429688 17.0459 0.0429688C15.9371 0.0429687 14.8708 0.469678 14.068 1.23464C13.6767 1.62566 13.3662 2.08998 13.1544 2.60105C12.9426 3.11211 12.8336 3.65991 12.8336 4.21314C12.8336 4.76636 12.9426 5.31416 13.1544 5.82523C13.3662 6.33629 13.6767 6.80061 14.068 7.19164L16.6137 9.7373L9.73736 16.6136L7.19053 14.068C6.38779 13.303 5.32147 12.8763 4.21262 12.8763C3.10376 12.8763 2.03744 13.303 1.2347 14.068C0.84335 14.459 0.532896 14.9233 0.321081 15.4344C0.109267 15.9454 0.000244141 16.4932 0.000244141 17.0465C0.000244141 17.5997 0.109267 18.1475 0.321081 18.6586C0.532896 19.1696 0.84335 19.6339 1.2347 20.025L3.78036 22.5706L2.67553 23.6755C2.5641 23.7831 2.47522 23.9118 2.41408 24.0542C2.35294 24.1965 2.32075 24.3496 2.31941 24.5045C2.31806 24.6594 2.34758 24.813 2.40624 24.9564C2.4649 25.0998 2.55153 25.2301 2.66107 25.3396C2.77061 25.4491 2.90087 25.5358 3.04425 25.5944C3.18763 25.6531 3.34126 25.6826 3.49617 25.6813C3.65108 25.6799 3.80417 25.6477 3.9465 25.5866C4.08884 25.5254 4.21758 25.4366 4.3252 25.3251L5.43003 24.2203L7.97686 26.766C8.36787 27.1571 8.83211 27.4674 9.34307 27.6792C9.85403 27.8909 10.4017 27.9998 10.9548 27.9998C11.5079 27.9998 12.0555 27.8909 12.5665 27.6792C13.0775 27.4674 13.5417 27.1571 13.9327 26.766C14.324 26.375 14.6344 25.9108 14.8462 25.3999C15.058 24.8889 15.1671 24.3412 15.1671 23.7881C15.1671 23.2349 15.058 22.6872 14.8462 22.1762C14.6344 21.6653 14.324 21.2011 13.9327 20.8101L11.387 18.2645L18.2704 11.387L20.816 13.9326C21.207 14.3238 21.6713 14.6341 22.1822 14.8458C22.6932 15.0575 23.2409 15.1665 23.7939 15.1665C24.347 15.1665 24.8947 15.0575 25.4057 14.8458C25.9166 14.6341 26.3809 14.3238 26.7719 13.9326C27.1632 13.5417 27.4736 13.0775 27.6854 12.5665C27.8972 12.0555 28.0062 11.5078 28.0062 10.9547C28.0062 10.4016 27.8972 9.85389 27.6854 9.34292C27.4736 8.83195 27.1632 8.36773 26.7719 7.9768H26.766ZM12.8337 23.7886C12.8342 24.0353 12.7858 24.2797 12.6913 24.5076C12.5968 24.7355 12.458 24.9424 12.283 25.1163C11.9254 25.4584 11.4496 25.6493 10.9548 25.6493C10.4599 25.6493 9.98413 25.4584 9.62653 25.1163L2.88436 18.3741C2.53209 18.0219 2.33419 17.5441 2.33419 17.0459C2.33419 16.5477 2.53209 16.0699 2.88436 15.7176C3.23664 15.3654 3.71442 15.1675 4.21262 15.1675C4.71081 15.1675 5.18859 15.3654 5.54086 15.7176L12.283 22.4598C12.4581 22.6339 12.597 22.841 12.6915 23.069C12.786 23.2971 12.8344 23.5417 12.8337 23.7886ZM25.1164 12.283C24.7588 12.625 24.283 12.816 23.7881 12.816C23.2932 12.816 22.8175 12.625 22.4599 12.283L15.7177 5.5408C15.5433 5.36637 15.4049 5.1593 15.3105 4.9314C15.2161 4.70349 15.1675 4.45923 15.1675 4.21255C15.1675 3.71436 15.3654 3.23658 15.7177 2.8843C16.07 2.53203 16.5478 2.33412 17.0459 2.33412C17.5441 2.33412 18.0219 2.53203 18.3742 2.8843L25.1164 9.62647C25.2909 9.80081 25.4294 10.0079 25.5239 10.2358C25.6184 10.4637 25.6671 10.708 25.6671 10.9547C25.6671 11.2014 25.6184 11.4457 25.5239 11.6737C25.4294 11.9016 25.2909 12.1086 25.1164 12.283Z" fill="#FF8800"/>
</g>
<defs>
<clipPath id="clip0_0_4587">
<rect width="28" height="28" fill="white"/>
</clipPath>
</defs>
</svg>
