<svg width="28" height="28" viewBox="0 0 28 28" fill="none" xmlns="http://www.w3.org/2000/svg">
<path opacity="0.4" d="M18.8883 2.33301H9.11159C4.86492 2.33301 2.33325 4.86467 2.33325 9.11134V18.8763C2.33325 23.1347 4.86492 25.6663 9.11159 25.6663H18.8766C23.1233 25.6663 25.6549 23.1347 25.6549 18.888V9.11134C25.6666 4.86467 23.1349 2.33301 18.8883 2.33301Z" fill="#FC4C56"/>
<path d="M18.0832 11.8183C19.2946 11.8183 20.2766 10.8363 20.2766 9.62497C20.2766 8.41363 19.2946 7.43164 18.0832 7.43164C16.8719 7.43164 15.8899 8.41363 15.8899 9.62497C15.8899 10.8363 16.8719 11.8183 18.0832 11.8183Z" fill="#FC4C56"/>
<path d="M9.91672 11.8183C11.1281 11.8183 12.1101 10.8363 12.1101 9.62497C12.1101 8.41363 11.1281 7.43164 9.91672 7.43164C8.70538 7.43164 7.72339 8.41363 7.72339 9.62497C7.72339 10.8363 8.70538 11.8183 9.91672 11.8183Z" fill="#FC4C56"/>
<path d="M18.2 15.0732H9.80003C8.98336 15.0732 8.31836 15.7382 8.31836 16.5666C8.31836 19.7049 10.8734 22.2599 14.0117 22.2599C17.15 22.2599 19.705 19.7049 19.705 16.5666C19.6934 15.7499 19.0167 15.0732 18.2 15.0732Z" fill="#FC4C56"/>
</svg>
