<svg width="15" height="15" viewBox="0 0 15 15" fill="none" xmlns="http://www.w3.org/2000/svg">
<path d="M8.1563 12.1377C7.8188 12.1377 7.46255 12.1064 7.07505 12.0439L4.1438 11.5814C3.2188 11.4377 2.5063 11.1814 1.97505 10.8064C0.606303 9.85644 0.687553 8.22518 0.862553 7.08143L1.32505 4.15018C1.75005 1.46268 3.13755 0.456435 5.82505 0.875185L8.7563 1.33768C10.1376 1.55643 11.9938 2.11268 12.1126 4.44393C12.1376 4.84393 12.1126 5.30018 12.0251 5.83768L11.5688 8.76893C11.2063 11.0627 10.1376 12.1377 8.1563 12.1377ZM4.7063 1.71893C3.2188 1.71893 2.5438 2.47518 2.25005 4.30018L1.78755 7.23143C1.50005 9.07518 2.02505 9.70018 2.51255 10.0439C2.92505 10.3377 3.5063 10.5377 4.28755 10.6564L7.2188 11.1189C9.40005 11.4627 10.3001 10.8064 10.6438 8.61893L11.1001 5.68768C11.1751 5.21893 11.2001 4.82518 11.1751 4.49393V4.48768C11.1063 3.17518 10.3626 2.53143 8.6063 2.25643L5.6813 1.80018C5.3188 1.74393 5.00005 1.71893 4.7063 1.71893Z" fill="#8C8C8C"/>
<path d="M9.17504 14.2186C8.64379 14.2186 8.04379 14.1061 7.35004 13.8748L4.53129 12.9373C2.92504 12.4061 2.05629 11.6436 1.79379 10.5311C1.75004 10.3436 1.82504 10.1436 1.98754 10.0373C2.15004 9.9311 2.36254 9.9311 2.51879 10.0436C2.93129 10.3373 3.50629 10.5373 4.28754 10.6561L7.21879 11.1186C9.40004 11.4623 10.3 10.8061 10.6438 8.6186L11.1 5.68735C11.175 5.2186 11.2 4.82485 11.175 4.4936C11.1688 4.3311 11.25 4.1686 11.3938 4.07485C11.5375 3.9811 11.7188 3.97485 11.8688 4.0561C13.5438 4.94985 13.9875 6.3811 13.2625 8.5686L12.325 11.3873C11.8813 12.7123 11.3 13.5248 10.4875 13.9311C10.0938 14.1248 9.66254 14.2186 9.17504 14.2186ZM3.58129 11.4748C3.88129 11.6748 4.28129 11.8686 4.82504 12.0498L7.64379 12.9873C8.71879 13.3436 9.48754 13.3748 10.0625 13.0936C10.6375 12.8061 11.075 12.1686 11.4313 11.0936L12.3688 8.27485C12.8813 6.72485 12.6813 5.89985 12.0875 5.3436C12.075 5.49985 12.05 5.66235 12.025 5.83735L11.5688 8.7686C11.1438 11.4561 9.75629 12.4623 7.06879 12.0498L4.13754 11.5873C3.94379 11.5498 3.75629 11.5123 3.58129 11.4748Z" fill="#8C8C8C"/>
<path d="M5.15 6.0749C4.29375 6.0749 3.59375 5.3749 3.59375 4.51865C3.59375 3.6624 4.29375 2.9624 5.15 2.9624C6.00625 2.9624 6.70625 3.6624 6.70625 4.51865C6.70625 5.3749 6.00625 6.0749 5.15 6.0749ZM5.15 3.90615C4.8125 3.90615 4.53125 4.18115 4.53125 4.5249C4.53125 4.86865 4.80625 5.14365 5.15 5.14365C5.4875 5.14365 5.76875 4.86865 5.76875 4.5249C5.76875 4.18115 5.4875 3.90615 5.15 3.90615Z" fill="#8C8C8C"/>
</svg>
