<svg width="15" height="15" viewBox="0 0 15 15" fill="none" xmlns="http://www.w3.org/2000/svg">
<path opacity="0.4" d="M11.4875 8.02539V11.1066C11.4875 11.9004 10.8687 12.7504 10.125 13.0004L8.1312 13.6629C7.7812 13.7816 7.21245 13.7816 6.8687 13.6629L4.87495 13.0004C4.12495 12.7504 3.51245 11.9004 3.51245 11.1066L3.5187 8.02539L6.2812 9.82539C6.9562 10.2691 8.0687 10.2691 8.7437 9.82539L11.4875 8.02539Z" fill="#8C8C8C"/>
<path d="M12.4875 4.03711L8.7437 1.58086C8.0687 1.13711 6.9562 1.13711 6.2812 1.58086L2.5187 4.03711C1.31245 4.81836 1.31245 6.58711 2.5187 7.37461L3.5187 8.02461L6.2812 9.82461C6.9562 10.2684 8.0687 10.2684 8.7437 9.82461L11.4875 8.02461L12.3437 7.46211V9.37461C12.3437 9.63086 12.5562 9.84336 12.8125 9.84336C13.0687 9.84336 13.2812 9.63086 13.2812 9.37461V6.29961C13.5312 5.49336 13.275 4.55586 12.4875 4.03711Z" fill="#8C8C8C"/>
</svg>
