<svg width="24" height="24" viewBox="0 0 24 24" fill="none" xmlns="http://www.w3.org/2000/svg">
<path opacity="0.4" d="M17.5 7.63V5C17.5 3 16.5 2 14.5 2H9.5C7.5 2 6.5 3 6.5 5V7.56" stroke="url(#paint0_linear_0_3209)" stroke-width="1.5" stroke-linecap="round" stroke-linejoin="round"/>
<path d="M4.26001 11.0195V15.9895C4.26001 17.8095 4.26001 17.8095 5.98001 18.9695L10.71 21.6995C11.42 22.1095 12.58 22.1095 13.29 21.6995L18.02 18.9695C19.74 17.8095 19.74 17.8095 19.74 15.9895V11.0195C19.74 9.19945 19.74 9.19945 18.02 8.03945L13.29 5.30945C12.58 4.89945 11.42 4.89945 10.71 5.30945L5.98001 8.03945C4.26001 9.19945 4.26001 9.19945 4.26001 11.0195Z" stroke="url(#paint1_linear_0_3209)" stroke-width="1.5" stroke-linecap="round" stroke-linejoin="round"/>
<path opacity="0.4" d="M12.63 10.99L13.2 11.88C13.29 12.02 13.49 12.16 13.64 12.2L14.66 12.46C15.29 12.62 15.46 13.16 15.05 13.66L14.38 14.47C14.28 14.6 14.2 14.83 14.21 14.99L14.27 16.04C14.31 16.69 13.85 17.02 13.25 16.78L12.27 16.39C12.12 16.33 11.87 16.33 11.72 16.39L10.74 16.78C10.14 17.02 9.68002 16.68 9.72002 16.04L9.78002 14.99C9.79002 14.83 9.71002 14.59 9.61002 14.47L8.94002 13.66C8.53002 13.16 8.70002 12.62 9.33002 12.46L10.35 12.2C10.51 12.16 10.71 12.01 10.79 11.88L11.36 10.99C11.72 10.45 12.28 10.45 12.63 10.99Z" stroke="url(#paint2_linear_0_3209)" stroke-width="1.5" stroke-linecap="round" stroke-linejoin="round"/>
<defs>
<linearGradient id="paint0_linear_0_3209" x1="12" y1="2" x2="12" y2="13.5" gradientUnits="userSpaceOnUse">
<stop stop-color="#D07C0C"/>
<stop offset="0.265" stop-color="#FFD034"/>
<stop offset="0.65" stop-color="#FEE65B"/>
<stop offset="1" stop-color="#CB6F0B"/>
</linearGradient>
<linearGradient id="paint1_linear_0_3209" x1="12" y1="5.00195" x2="12" y2="22.007" gradientUnits="userSpaceOnUse">
<stop stop-color="#D07C0C"/>
<stop offset="0.265" stop-color="#FFD034"/>
<stop offset="0.65" stop-color="#FEE65B"/>
<stop offset="1" stop-color="#CB6F0B"/>
</linearGradient>
<linearGradient id="paint2_linear_0_3209" x1="11.995" y1="10.585" x2="11.995" y2="16.8583" gradientUnits="userSpaceOnUse">
<stop stop-color="#D07C0C"/>
<stop offset="0.265" stop-color="#FFD034"/>
<stop offset="0.65" stop-color="#FEE65B"/>
<stop offset="1" stop-color="#CB6F0B"/>
</linearGradient>
</defs>
</svg>
