<svg width="17" height="17" viewBox="0 0 17 17" fill="none" xmlns="http://www.w3.org/2000/svg">
<path d="M12.75 7.61442C12.4596 7.61442 12.2188 7.37359 12.2188 7.08317V5.6665C12.2188 3.43525 11.5883 1.94775 8.5 1.94775C5.41167 1.94775 4.78125 3.43525 4.78125 5.6665V7.08317C4.78125 7.37359 4.54042 7.61442 4.25 7.61442C3.95958 7.61442 3.71875 7.37359 3.71875 7.08317V5.6665C3.71875 3.61234 4.21458 0.885254 8.5 0.885254C12.7854 0.885254 13.2812 3.61234 13.2812 5.6665V7.08317C13.2812 7.37359 13.0404 7.61442 12.75 7.61442Z" fill="#913175"/>
<path d="M8.50002 13.6354C7.2321 13.6354 6.19794 12.6013 6.19794 11.3333C6.19794 10.0654 7.2321 9.03125 8.50002 9.03125C9.76794 9.03125 10.8021 10.0654 10.8021 11.3333C10.8021 12.6013 9.76794 13.6354 8.50002 13.6354ZM8.50002 10.0938C7.82002 10.0938 7.26044 10.6533 7.26044 11.3333C7.26044 12.0133 7.82002 12.5729 8.50002 12.5729C9.18002 12.5729 9.7396 12.0133 9.7396 11.3333C9.7396 10.6533 9.18002 10.0938 8.50002 10.0938Z" fill="#913175"/>
<path d="M12.0417 16.1147H4.95835C1.8346 16.1147 0.885437 15.1656 0.885437 12.0418V10.6252C0.885437 7.50141 1.8346 6.55225 4.95835 6.55225H12.0417C15.1654 6.55225 16.1146 7.50141 16.1146 10.6252V12.0418C16.1146 15.1656 15.1654 16.1147 12.0417 16.1147ZM4.95835 7.61475C2.42252 7.61475 1.94794 8.09641 1.94794 10.6252V12.0418C1.94794 14.5706 2.42252 15.0522 4.95835 15.0522H12.0417C14.5775 15.0522 15.0521 14.5706 15.0521 12.0418V10.6252C15.0521 8.09641 14.5775 7.61475 12.0417 7.61475H4.95835Z" fill="#913175"/>
</svg>
