<svg width="25" height="25" viewBox="0 0 25 25" fill="none" xmlns="http://www.w3.org/2000/svg">
<path d="M16.24 19.6552C16.24 21.5483 14.6845 23.1 12.7867 23.1C11.843 23.1 10.9719 22.7069 10.3497 22.0862C9.72745 21.4655 9.33337 20.5965 9.33337 19.6552" stroke="#2980B9" stroke-width="1.5" stroke-miterlimit="10"/>
<path d="M12.4445 6.66211V10.1069" stroke="#2980B9" stroke-width="1.5" stroke-miterlimit="10" stroke-linecap="round"/>
<path d="M12.4652 2.06897C8.64886 2.06897 5.55849 5.15173 5.55849 8.95863V11.131C5.55849 11.8345 5.26812 12.8897 4.90516 13.4897L3.58812 15.6828C2.77923 17.0379 3.33923 18.5483 4.83257 19.0448C9.7896 20.6897 15.1511 20.6897 20.1081 19.0448C21.5081 18.5793 22.1096 16.9448 21.3526 15.6828L20.0355 13.4897C19.6726 12.8897 19.3822 11.8241 19.3822 11.131V8.95863C19.3718 5.17242 16.2607 2.06897 12.4652 2.06897Z" stroke="#003355" stroke-width="1.5" stroke-miterlimit="10" stroke-linecap="round"/>
</svg>
