<?xml version="1.0" encoding="UTF-8"?>
<!DOCTYPE svg PUBLIC "-//W3C//DTD SVG 1.1//EN" "http://www.w3.org/Graphics/SVG/1.1/DTD/svg11.dtd">
<svg xmlns="http://www.w3.org/2000/svg" version="1.1" width="56px" height="56px" style="shape-rendering:geometricPrecision; text-rendering:geometricPrecision; image-rendering:optimizeQuality; fill-rule:evenodd; clip-rule:evenodd" xmlns:xlink="http://www.w3.org/1999/xlink">
<g><path style="opacity:0.847" fill="#913174" d="M 21.5,3.5 C 30.8052,2.40443 37.9719,5.73777 43,13.5C 45.0281,19.056 47.1948,24.556 49.5,30C 48.3961,31.8204 46.8961,33.3204 45,34.5C 45.1603,40.4993 42.3269,43.8326 36.5,44.5C 36.8333,49.5 34.5,51.8333 29.5,51.5C 30.0748,47.6742 31.2415,44.0075 33,40.5C 38.7239,39.6895 41.0572,36.3562 40,30.5C 41.2051,29.9288 42.3717,29.2621 43.5,28.5C 40.9808,23.6198 38.6474,18.6198 36.5,13.5C 33.6427,10.7379 30.3094,9.07125 26.5,8.5C 25.6906,13.5385 26.8573,17.8718 30,21.5C 31.123,24.9563 30.2896,27.7897 27.5,30C 28.263,30.9435 29.263,31.4435 30.5,31.5C 32.8006,30.6042 35.1339,30.4375 37.5,31C 39.1428,34.1426 38.3095,36.3092 35,37.5C 31.461,36.8269 27.961,35.9936 24.5,35C 22.2621,31.6053 20.2621,28.1053 18.5,24.5C 18.7453,22.3367 19.7453,20.67 21.5,19.5C 22.8333,15.8333 22.8333,12.1667 21.5,8.5C 17.2255,10.4572 13.5588,13.1238 10.5,16.5C 8.99962,16.5472 7.99962,15.8805 7.5,14.5C 9.96556,7.9441 14.6322,4.27743 21.5,3.5 Z"/></g>
<g><path style="opacity:0.833" fill="#8f2f73" d="M 6.5,22.5 C 8.14387,22.2865 9.64387,22.6198 11,23.5C 12.087,27.7661 13.7536,31.7661 16,35.5C 17.1076,39.0863 17.6076,42.753 17.5,46.5C 20.5,46.5 23.5,46.5 26.5,46.5C 26.5,48.1667 26.5,49.8333 26.5,51.5C 22.4295,51.7662 18.4295,51.4328 14.5,50.5C 12.9103,46.3151 11.7437,41.9818 11,37.5C 8.41485,33.4376 6.58152,29.1043 5.5,24.5C 5.86273,23.8165 6.19607,23.1499 6.5,22.5 Z"/></g>
</svg>
