<?xml version="1.0" encoding="UTF-8"?>
<!DOCTYPE svg PUBLIC "-//W3C//DTD SVG 1.1//EN" "http://www.w3.org/Graphics/SVG/1.1/DTD/svg11.dtd">
<svg xmlns="http://www.w3.org/2000/svg" version="1.1" width="48px" height="48px" style="shape-rendering:geometricPrecision; text-rendering:geometricPrecision; image-rendering:optimizeQuality; fill-rule:evenodd; clip-rule:evenodd" xmlns:xlink="http://www.w3.org/1999/xlink">
<g><path style="opacity:0.969" fill="#903074" d="M 20.5,1.5 C 32.5248,1.88874 37.0248,7.88874 34,19.5C 29.7135,25.26 24.2135,26.76 17.5,24C 11.74,19.7135 10.24,14.2135 13,7.5C 15.109,4.87819 17.609,2.87819 20.5,1.5 Z M 20.5,5.5 C 28.6577,4.82288 32.1577,8.48954 31,16.5C 28.7742,20.8608 25.2742,22.3608 20.5,21C 16.1392,18.7742 14.6392,15.2742 16,10.5C 17.025,8.31305 18.525,6.64638 20.5,5.5 Z"/></g>
<g><path style="opacity:0.383" fill="#913175" d="M 18.5,27.5 C 25.9434,26.5934 32.6101,28.4267 38.5,33C 41.5302,36.5917 42.8636,40.7584 42.5,45.5C 41.1779,45.67 40.0113,45.3366 39,44.5C 37.5572,35.847 32.3905,31.5137 23.5,31.5C 14.5498,31.5323 9.38316,35.8657 8,44.5C 6.98873,45.3366 5.82207,45.67 4.5,45.5C 4.84716,36.1385 9.51382,30.1385 18.5,27.5 Z"/></g>
</svg>
